<?xml version="1.0" encoding="UTF-8"?>
<svg width="127px" height="24px" viewBox="0 0 127 24" version="1.1" xmlns="http://www.w3.org/2000/svg" xmlns:xlink="http://www.w3.org/1999/xlink">
    <!-- Generator: Sketch 51.3 (57544) - http://www.bohemiancoding.com/sketch -->
    <title>HOOPER</title>
    <desc>Created with Sketch.</desc>
    <defs></defs>
    <g id="Page-1" stroke="none" stroke-width="1" fill="none" fill-rule="evenodd">
        <g id="Artboard" transform="translate(-32.000000, -37.000000)" fill="#384D48">
            <path d="M51.195,38.145 L51.195,60 L46.095,60 L46.095,50.76 L37.215,50.76 L37.215,60 L32.115,60 L32.115,38.145 L37.215,38.145 L37.215,47.28 L46.095,47.28 L46.095,38.145 L51.195,38.145 Z M76.875,49.065 C76.875,50.6450079 76.6025027,52.1149932 76.0575,53.475 C75.5124973,54.8350068 74.745005,56.017495 73.755,57.0225 C72.7649951,58.027505 71.572507,58.8149971 70.1775,59.385 C68.782493,59.9550028 67.2350085,60.24 65.535,60.24 C63.8349915,60.24 62.285007,59.9550028 60.885,59.385 C59.484993,58.8149971 58.287505,58.027505 57.2925,57.0225 C56.297495,56.017495 55.5275027,54.8350068 54.9825,53.475 C54.4374973,52.1149932 54.165,50.6450079 54.165,49.065 C54.165,47.4849921 54.4374973,46.0150068 54.9825,44.655 C55.5275027,43.2949932 56.297495,42.115005 57.2925,41.115 C58.287505,40.114995 59.484993,39.3300028 60.885,38.76 C62.285007,38.1899972 63.8349915,37.905 65.535,37.905 C67.2350085,37.905 68.782493,38.1924971 70.1775,38.7675 C71.572507,39.3425029 72.7649951,40.129995 73.755,41.13 C74.745005,42.130005 75.5124973,43.3099932 76.0575,44.67 C76.6025027,46.0300068 76.875,47.4949922 76.875,49.065 Z M71.685,49.065 C71.685,47.9849946 71.5450014,47.0125043 71.265,46.1475 C70.9849986,45.2824957 70.5825026,44.550003 70.0575,43.95 C69.5324974,43.349997 68.8900038,42.8900016 68.13,42.57 C67.3699962,42.2499984 66.5050049,42.09 65.535,42.09 C64.5549951,42.09 63.6825038,42.2499984 62.9175,42.57 C62.1524962,42.8900016 61.5075026,43.349997 60.9825,43.95 C60.4574974,44.550003 60.0550014,45.2824957 59.775,46.1475 C59.4949986,47.0125043 59.355,47.9849946 59.355,49.065 C59.355,50.1550055 59.4949986,51.1324957 59.775,51.9975 C60.0550014,52.8625043 60.4574974,53.594997 60.9825,54.195 C61.5075026,54.795003 62.1524962,55.2524984 62.9175,55.5675 C63.6825038,55.8825016 64.5549951,56.04 65.535,56.04 C66.5050049,56.04 67.3699962,55.8825016 68.13,55.5675 C68.8900038,55.2524984 69.5324974,54.795003 70.0575,54.195 C70.5825026,53.594997 70.9849986,52.8625043 71.265,51.9975 C71.5450014,51.1324957 71.685,50.1550055 71.685,49.065 Z M101.31,49.065 C101.31,50.6450079 101.037503,52.1149932 100.4925,53.475 C99.9474973,54.8350068 99.180005,56.017495 98.19,57.0225 C97.1999951,58.027505 96.007507,58.8149971 94.6125,59.385 C93.217493,59.9550028 91.6700085,60.24 89.97,60.24 C88.2699915,60.24 86.720007,59.9550028 85.32,59.385 C83.919993,58.8149971 82.722505,58.027505 81.7275,57.0225 C80.732495,56.017495 79.9625027,54.8350068 79.4175,53.475 C78.8724973,52.1149932 78.6,50.6450079 78.6,49.065 C78.6,47.4849921 78.8724973,46.0150068 79.4175,44.655 C79.9625027,43.2949932 80.732495,42.115005 81.7275,41.115 C82.722505,40.114995 83.919993,39.3300028 85.32,38.76 C86.720007,38.1899972 88.2699915,37.905 89.97,37.905 C91.6700085,37.905 93.217493,38.1924971 94.6125,38.7675 C96.007507,39.3425029 97.1999951,40.129995 98.19,41.13 C99.180005,42.130005 99.9474973,43.3099932 100.4925,44.67 C101.037503,46.0300068 101.31,47.4949922 101.31,49.065 Z M96.12,49.065 C96.12,47.9849946 95.9800014,47.0125043 95.7,46.1475 C95.4199986,45.2824957 95.0175026,44.550003 94.4925,43.95 C93.9674974,43.349997 93.3250038,42.8900016 92.565,42.57 C91.8049962,42.2499984 90.9400048,42.09 89.97,42.09 C88.9899951,42.09 88.1175038,42.2499984 87.3525,42.57 C86.5874962,42.8900016 85.9425026,43.349997 85.4175,43.95 C84.8924974,44.550003 84.4900014,45.2824957 84.21,46.1475 C83.9299986,47.0125043 83.79,47.9849946 83.79,49.065 C83.79,50.1550055 83.9299986,51.1324957 84.21,51.9975 C84.4900014,52.8625043 84.8924974,53.594997 85.4175,54.195 C85.9425026,54.795003 86.5874962,55.2524984 87.3525,55.5675 C88.1175038,55.8825016 88.9899951,56.04 89.97,56.04 C90.9400048,56.04 91.8049962,55.8825016 92.565,55.5675 C93.3250038,55.2524984 93.9674974,54.795003 94.4925,54.195 C95.0175026,53.594997 95.4199986,52.8625043 95.7,51.9975 C95.9800014,51.1324957 96.12,50.1550055 96.12,49.065 Z M112.005,48.87 C113.325007,48.87 114.274997,48.5550032 114.855,47.925 C115.435003,47.2949969 115.725,46.4150056 115.725,45.285 C115.725,44.7849975 115.650001,44.3300021 115.5,43.92 C115.349999,43.5099979 115.122502,43.1575015 114.8175,42.8625 C114.512498,42.5674985 114.127502,42.3400008 113.6625,42.18 C113.197498,42.0199992 112.645003,41.94 112.005,41.94 L109.365,41.94 L109.365,48.87 L112.005,48.87 Z M112.005,38.145 C113.545008,38.145 114.867494,38.3274982 115.9725,38.6925 C117.077506,39.0575018 117.987496,39.5599968 118.7025,40.2 C119.417504,40.8400032 119.944998,41.5949957 120.285,42.465 C120.625002,43.3350043 120.795,44.2749949 120.795,45.285 C120.795,46.3750055 120.620002,47.3749955 120.27,48.285 C119.919998,49.1950046 119.385004,49.9749968 118.665,50.625 C117.944996,51.2750032 117.032506,51.7824982 115.9275,52.1475 C114.822494,52.5125018 113.515008,52.695 112.005,52.695 L109.365,52.695 L109.365,60 L104.295,60 L104.295,38.145 L112.005,38.145 Z M128.475,42.045 L128.475,47.145 L135.345,47.145 L135.345,50.895 L128.475,50.895 L128.475,56.1 L137.445,56.1 L137.445,60 L123.375,60 L123.375,38.145 L137.445,38.145 L137.445,42.045 L128.475,42.045 Z M147.675,48.42 C148.365003,48.42 148.952498,48.3325009 149.4375,48.1575 C149.922502,47.9824991 150.319998,47.7400016 150.63,47.43 C150.940002,47.1199984 151.164999,46.7575021 151.305,46.3425 C151.445001,45.9274979 151.515,45.4800024 151.515,45 C151.515,44.0399952 151.202503,43.2900027 150.5775,42.75 C149.952497,42.2099973 148.985007,41.94 147.675,41.94 L145.635,41.94 L145.635,48.42 L147.675,48.42 Z M158.445,60 L153.855,60 C153.004996,60 152.395002,59.6800032 152.025,59.04 L148.395,52.695 C148.224999,52.4249986 148.035001,52.2275006 147.825,52.1025 C147.614999,51.9774994 147.315002,51.915 146.925,51.915 L145.635,51.915 L145.635,60 L140.565,60 L140.565,38.145 L147.675,38.145 C149.255008,38.145 150.602494,38.3074984 151.7175,38.6325 C152.832506,38.9575016 153.742496,39.4099971 154.4475,39.99 C155.152504,40.5700029 155.664998,41.2549961 155.985,42.045 C156.305002,42.835004 156.465,43.6949953 156.465,44.625 C156.465,45.3350036 156.370001,46.0049968 156.18,46.635 C155.989999,47.2650031 155.710002,47.8474973 155.34,48.3825 C154.969998,48.9175027 154.512503,49.3949979 153.9675,49.815 C153.422497,50.2350021 152.795004,50.5799987 152.085,50.85 C152.415002,51.0200009 152.724999,51.2324987 153.015,51.4875 C153.305001,51.7425013 153.564999,52.0449982 153.795,52.395 L158.445,60 Z" id="HOOPER"></path>
        </g>
    </g>
</svg>